<svg width="22" height="22" viewBox="0 0 22 22" fill="none" xmlns="http://www.w3.org/2000/svg">
<path d="M6.92815 2.21177H6.71387C6.83173 2.21177 6.92815 2.11535 6.92815 1.99749V2.21177H15.071V1.99749C15.071 2.11535 15.1674 2.21177 15.2853 2.21177H15.071V4.14035H16.9996V1.99749C16.9996 1.05195 16.2308 0.283203 15.2853 0.283203H6.71387C5.76833 0.283203 4.99958 1.05195 4.99958 1.99749V4.14035H6.92815V2.21177ZM20.4282 4.14035H1.57101C1.0969 4.14035 0.713867 4.52338 0.713867 4.99749V5.85463C0.713867 5.97249 0.810296 6.06892 0.928153 6.06892H2.54601L3.20762 20.0778C3.25047 20.9912 4.00583 21.7118 4.91922 21.7118H17.0799C17.996 21.7118 18.7487 20.9939 18.7915 20.0778L19.4532 6.06892H21.071C21.1889 6.06892 21.2853 5.97249 21.2853 5.85463V4.99749C21.2853 4.52338 20.9023 4.14035 20.4282 4.14035ZM16.8737 19.7832H5.12548L4.47726 6.06892H17.5219L16.8737 19.7832Z" fill="#8C8C8C"/>
</svg>
