<svg width="28" height="30" viewBox="0 0 28 30" fill="#fff" xmlns="http://www.w3.org/2000/svg">
<path d="M15.205 0.537598H12.7943C12.58 0.537598 12.4729 0.644741 12.4729 0.859026V13.4751H0.500628C0.286342 13.4751 0.179199 13.5822 0.179199 13.7965V16.2072C0.179199 16.4215 0.286342 16.5287 0.500628 16.5287H12.4729V29.1447C12.4729 29.359 12.58 29.4662 12.7943 29.4662H15.205C15.4193 29.4662 15.5265 29.359 15.5265 29.1447V16.5287H27.5006C27.7149 16.5287 27.8221 16.4215 27.8221 16.2072V13.7965C27.8221 13.5822 27.7149 13.4751 27.5006 13.4751H15.5265V0.859026C15.5265 0.644741 15.4193 0.537598 15.205 0.537598Z" fill="#fff" fill-opacity="0.85"/>
</svg>
